HIERARCHY
ROOT Hips
{
 OFFSET 0.000000 0.000000 0.000000
 CHANNELS 6 Xposition Yposition Zposition Yrotation Xrotation Zrotation
 JOINT Chest
 {
  OFFSET 0.000000 14.374500 -0.011500
  CHANNELS 3 Yrotation Xrotation Zrotation
  JOINT Chest2
  {
   OFFSET 0.000000 9.203400 0.023400
   CHANNELS 3 Yrotation Xrotation Zrotation
   JOINT Chest3
   {
    OFFSET 0.000000 9.162700 0.000000
    CHANNELS 3 Yrotation Xrotation Zrotation
    JOINT Chest4
    {
     OFFSET 0.000000 9.153300 0.000000
     CHANNELS 3 Yrotation Xrotation Zrotation
     JOINT Neck
     {
      OFFSET 0.000000 13.353600 0.000000
      CHANNELS 3 Yrotation Xrotation Zrotation
      JOINT Head
      {
       OFFSET 0.000000 8.573800 0.049400
       CHANNELS 3 Yrotation Xrotation Zrotation
       End Site
       {
        OFFSET 0.000000 16.219200 0.026100
       }
      }
     }
     JOINT RightCollar
     {
      OFFSET -2.497100 8.876100 0.000000
      CHANNELS 3 Yrotation Xrotation Zrotation
      JOINT RightShoulder
      {
       OFFSET -12.289200 0.000000 0.000000
       CHANNELS 3 Yrotation Xrotation Zrotation
       JOINT RightElbow
       {
        OFFSET 0.000000 -28.194900 0.000000
        CHANNELS 3 Yrotation Xrotation Zrotation
        JOINT RightWrist
        {
         OFFSET 0.000000 -23.009700 0.007900
         CHANNELS 3 Yrotation Xrotation Zrotation
         End Site
         {
          OFFSET 0.000000 -17.151500 0.000000
         }
        }
       }
      }
     }
     JOINT LeftCollar
     {
      OFFSET 2.497100 8.876100 0.000000
      CHANNELS 3 Yrotation Xrotation Zrotation
      JOINT LeftShoulder
      {
       OFFSET 12.289200 0.000000 0.000000
       CHANNELS 3 Yrotation Xrotation Zrotation
       JOINT LeftElbow
       {
        OFFSET 0.000000 -28.194900 0.000000
        CHANNELS 3 Yrotation Xrotation Zrotation
        JOINT LeftWrist
        {
         OFFSET 0.000000 -23.009700 0.007900
         CHANNELS 3 Yrotation Xrotation Zrotation
         End Site
         {
          OFFSET 0.000000 -17.151500 0.000000
         }
        }
       }
      }
     }
    }
   }
  }
 }
 JOINT RightHip
 {
  OFFSET -11.777600 0.056700 0.005700
  CHANNELS 3 Yrotation Xrotation Zrotation
  JOINT RightKnee
  {
   OFFSET 0.000000 -39.966000 -0.004200
   CHANNELS 3 Yrotation Xrotation Zrotation
   JOINT RightAnkle
   {
    OFFSET 0.000000 -41.981900 0.027400
    CHANNELS 3 Yrotation Xrotation Zrotation
    JOINT RightToe
    {
     OFFSET 0.000000 -9.910600 16.950100
     CHANNELS 3 Yrotation Xrotation Zrotation
     End Site
     {
      OFFSET 0.000000 -1.461000 6.191600
     }
    }
   }
  }
 }
 JOINT LeftHip
 {
  OFFSET 11.777600 0.056700 0.005700
  CHANNELS 3 Yrotation Xrotation Zrotation
  JOINT LeftKnee
  {
   OFFSET 0.000000 -39.966000 -0.004200
   CHANNELS 3 Yrotation Xrotation Zrotation
   JOINT LeftAnkle
   {
    OFFSET 0.000000 -41.981900 0.027400
    CHANNELS 3 Yrotation Xrotation Zrotation
    JOINT LeftToe
    {
     OFFSET 0.000000 -9.910600 16.950100
     CHANNELS 3 Yrotation Xrotation Zrotation
     End Site
     {
      OFFSET 0.000000 -1.461000 6.191600
     }
    }
   }
  }
 }
}
MOTION
Frames: 8
Frame Time: 0.008333
0.000000 91.618700 0.000000 0.000000 -5.767877 0.000000 0.000000 11.653817 0.000000 0.000000 -5.885947 0.000000 0.000000 -0.000000 0.000000 0.000000 -0.000000 0.000000 0.000000 12.528835 0.000000 0.000000 0.711642 0.000000 0.000000 -0.000000 0.000000 0.000000 0.000000 -90.000000 0.000000 -2.309062 0.000000 0.000000 2.309062 0.000000 0.000000 -0.000000 0.000000 0.000000 -0.000000 90.000000 0.000000 -2.309062 0.000000 0.000000 2.309062 0.000000 0.000000 8.520406 0.000000 0.000000 1.905762 0.000000 -0.000000 -4.658285 0.000000 0.000000 -0.000000 0.000000 0.000000 8.520406 0.000000 0.000000 1.905762 0.000000 -0.000000 -4.658285 0.000000 0.000000 -0.000000 0.000000
6.576527 152.558232 21.863078 172.993727 -48.194808 -2.601388 3.577892 28.380110 2.027805 0.515748 5.182051 0.267220 0.819177 8.149347 0.445853 2.629623 22.843325 1.598620 0.459006 15.744810 0.425549 0.392185 -9.227831 0.327996 5.821360 -6.119766 -1.639088 18.787639 -38.778954 -6.772169 14.068573 -23.721467 -5.685080 12.057224 -9.192234 -33.685341 -13.711601 -9.363046 1.268975 -11.259459 -37.183689 2.570281 -11.950273 -21.737368 4.116996 -20.110579 -16.917239 30.784811 7.927868 -29.878592 2.147015 -74.314591 85.990106 -75.935382 1.066675 -24.787655 8.182940 0.035116 -0.171852 0.046089 0.119750 -27.313998 -5.152230 148.510296 66.878383 161.151574 1.917376 17.204076 -1.804807 0.439480 -12.692990 -3.559165
5.726347 145.555032 23.334950 173.110536 -48.129319 -2.750373 3.502362 28.338629 2.089277 0.525148 5.172352 0.263405 0.774189 8.177801 0.463799 2.582361 22.864156 1.600384 0.488325 15.673869 0.411300 0.415443 -9.293115 0.318072 5.943110 -6.001336 -1.672253 18.748896 -38.720843 -6.946772 13.952100 -24.372748 -5.508598 11.830357 -9.298387 -33.569966 -13.633675 -9.249229 1.234243 -11.116258 -37.123453 2.606643 -11.599261 -22.346037 3.842358 -19.779185 -16.835630 30.389309 7.813221 -29.959943 2.213108 -74.705706 86.000514 -76.331146 1.078506 -24.872505 8.179740 0.020210 -0.113425 0.011815 -0.010279 -27.364300 -5.068228 148.502985 66.898106 161.128693 1.950970 17.200363 -1.778813 0.014219 -0.026594 0.008314
5.024268 139.789983 24.543828 173.205386 -48.083309 -2.862981 3.376227 28.342225 2.124660 0.545294 5.162508 0.251987 0.786997 8.164788 0.454265 2.507719 22.896827 1.626312 0.515982 15.608565 0.392508 0.448299 -9.362018 0.292184 6.066336 -5.865221 -1.716266 18.698341 -38.636059 -7.136903 13.799258 -25.101982 -5.277890 11.505354 -9.440358 -33.425990 -13.519621 -9.126248 1.205485 -10.911291 -37.051531 2.569751 -11.212663 -22.996816 3.537790 -19.404728 -16.745985 29.951429 7.726150 -30.015983 2.256961 -75.112704 86.023602 -76.739655 1.069791 -24.953430 8.174382 0.010431 -0.066863 0.006097 -0.119381 -27.397630 -5.006202 148.522070 66.914418 161.128583 1.972333 17.197447 -1.763990 0.001409 -0.014371 0.000824
4.515846 135.625927 25.415968 173.235460 -48.042902 -2.910386 3.333804 28.318738 2.146944 0.458211 5.211075 0.291780 0.797024 8.155482 0.441450 2.473158 22.896699 1.615299 0.543688 15.546422 0.362308 0.483817 -9.427514 0.254422 6.184300 -5.721466 -1.769688 18.622957 -38.512427 -7.334995 13.606703 -25.908855 -4.982282 11.069373 -9.608673 -33.256677 -13.376896 -9.009350 1.179700 -10.629443 -36.949849 2.445760 -10.808320 -23.695415 3.201394 -18.982760 -16.635647 29.467402 7.693330 -30.062111 2.280451 -75.391536 86.032514 -77.019791 1.070085 -25.005021 8.168407 0.008524 -0.041166 0.004983 -0.166632 -27.430307 -4.970358 148.546983 66.924213 161.149532 1.974629 17.203911 -1.758952 0.003425 -0.009610 0.002003
4.197161 132.998018 25.964012 173.268955 -48.019358 -2.960569 3.256591 28.329039 2.173742 0.439430 5.221758 0.306497 0.776612 8.162488 0.446605 2.440933 22.895494 1.605693 0.568011 15.490963 0.324746 0.517497 -9.485903 0.209786 6.290404 -5.579413 -1.820871 18.517061 -38.336464 -7.535010 13.365163 -26.796368 -4.616202 10.515903 -9.794921 -33.062663 -13.220484 -8.901012 1.162624 -10.283308 -36.804724 2.240489 -10.383106 -24.443893 2.822985 -18.495249 -16.503958 28.940859 7.659597 -30.085871 2.305378 -75.548635 86.037191 -77.175390 1.075561 -25.046648 8.163039 0.003727 -0.019559 0.002179 -0.216067 -27.447108 -4.933715 148.568936 66.929093 161.167562 1.976922 17.206171 -1.750640 0.001948 -0.006548 0.001139
4.020184 131.553979 26.262220 173.277593 -48.004463 -2.974520 3.150049 28.374677 2.201375 0.476784 5.194789 0.274431 0.763117 8.166167 0.452343 2.403235 22.901464 1.617026 0.593217 15.450310 0.253164 0.536847 -9.543629 0.195160 6.387203 -5.447254 -1.863551 18.381807 -38.099447 -7.730492 13.051866 -27.765755 -4.177147 9.868859 -9.996329 -32.834701 -13.060097 -8.797250 1.160188 -9.907864 -36.609170 1.980009 -9.877558 -25.265227 2.361429 -17.937100 -16.331792 28.374732 7.654799 -30.094497 2.308562 -75.630256 86.040944 -77.253387 1.074581 -25.065816 8.161136 0.004053 -0.015405 0.002369 -0.257561 -27.456902 -4.913275 148.593028 66.929755 161.175979 1.972248 17.211173 -1.749165 0.005150 -0.008151 0.003011
3.936851 130.866181 26.402597 173.273463 -47.985219 -2.980574 3.117096 28.384354 2.222949 0.469932 5.197198 0.279361 0.771333 8.151862 0.435742 2.367669 22.922980 1.664275 0.603778 15.408413 0.184846 0.563777 -9.592908 0.171314 6.479290 -5.330676 -1.898160 18.236417 -37.800646 -7.926662 12.613342 -28.814798 -3.647759 9.145685 -10.225120 -32.574309 -12.904426 -8.697278 1.176237 -9.539923 -36.358797 1.700673 -9.180051 -26.206243 1.751753 -17.324718 -16.084504 27.753023 7.658074 -30.106614 2.313272 -75.705146 86.041526 -77.323710 1.071819 -25.083696 8.153318 0.002926 -0.013632 0.001710 -0.320892 -27.467112 -4.889948 148.639058 66.925115 161.191726 1.978009 17.205838 -1.767957 0.010619 -0.003748 0.006209
